<?xml version="1.0" encoding="utf-8"?>
<!-- Generator: Adobe Illustrator 27.2.0, SVG Export Plug-In . SVG Version: 6.00 Build 0)  -->
<svg version="1.1" id="Capa_1" xmlns="http://www.w3.org/2000/svg" xmlns:xlink="http://www.w3.org/1999/xlink" x="0px" y="0px"
	 viewBox="0 0 800 800" style="enable-background:new 0 0 800 800;" xml:space="preserve">
<style type="text/css">
	.st0{fill:#F59705;}
	.st1{fill:#363636;}
	.st2{fill:#298983;}
</style>
<circle class="st0" cx="398.7" cy="399.5" r="390.9"/>
<g>
	<g>
		<path class="st1" d="M285.5,272.5c1.9,1.9,4.4,2.9,6.9,2.9c2.5,0,5.1-1,6.9-2.9c3.9-3.9,3.9-10,0-13.9c-9.9-9.9-9.9-26.3,0-36.2
			c8.5-8.5,13.3-19.9,13.3-32c0-12.1-4.8-23.4-13.3-32c-3.9-3.9-10-3.9-13.9,0c-3.9,3.9-3.9,10,0,13.9c4.9,4.9,7.6,11.2,7.6,18.2
			c0,6.9-2.7,13.3-7.6,18.2C267.8,226.1,267.8,254.8,285.5,272.5z"/>
		<path class="st1" d="M501.8,272.5c1.9,1.9,4.4,2.9,6.9,2.9c2.5,0,5.1-1,6.9-2.9c3.9-3.9,3.9-10,0-13.9c-9.9-9.9-9.9-26.3,0-36.2
			c8.5-8.5,13.3-19.9,13.3-32c0-12.1-4.8-23.4-13.3-32c-3.9-3.9-10-3.9-13.9,0c-3.9,3.9-3.9,10,0,13.9c4.9,4.9,7.6,11.2,7.6,18.2
			c0,6.9-2.7,13.3-7.6,18.2C484.2,226.1,484.2,254.8,501.8,272.5z"/>
		<path class="st1" d="M393.6,213.5c1.9,1.9,4.4,2.9,6.9,2.9c2.5,0,5.1-1,6.9-2.9c3.9-3.9,3.9-10,0-13.9c-9.9-9.9-9.9-26.3,0-36.2
			c8.5-8.5,13.3-19.9,13.3-32s-4.8-23.4-13.3-32c-3.9-3.9-10-3.9-13.9,0s-3.9,10,0,13.9c4.9,4.9,7.6,11.2,7.6,18.2
			c0,6.9-2.7,13.3-7.6,18.2C376,167.1,376,195.8,393.6,213.5z"/>
		<path class="st1" d="M354.2,349.3c0.8,0,1.4-0.1,2.2-0.2c14.2-3.1,28.7-4.8,43.4-4.8h0.1l0,0c5.4,0,9.8-4.4,9.8-9.8
			s-4.4-9.8-9.8-9.8h-0.1c-16.2,0-32.2,1.7-47.8,5.3c-5.3,1.2-8.6,6.5-7.5,11.8C345.6,346.2,349.8,349.3,354.2,349.3z"/>
		<path class="st1" d="M201.6,511.3c0.6,0.1,1.2,0.2,1.7,0.2c4.6,0,8.8-3.3,9.6-8.1c10.3-56.1,44-105.9,90.3-133.3
			c4.6-2.8,6.3-8.8,3.5-13.5c-2.8-4.6-8.8-6.3-13.5-3.5c-51.2,30.4-88.4,85.2-99.6,146.7C192.6,505.1,196.2,510.3,201.6,511.3z"/>
		<path class="st1" d="M652,497.9C634.2,393.3,552.6,310.1,448.7,290c0.2-1.6,0.4-3.1,0.4-4.8c0-27.1-22-49.2-49.2-49.2
			s-49.2,22-49.2,49.2c0,1.5,0.2,3.1,0.4,4.8C247.4,310.1,165.8,393.3,148,497.9c-20.5,11.7-43,28.7-43,48c0,50,152.6,83.5,295,83.5
			s295-33.6,295-83.5C695,526.6,672.5,509.4,652,497.9z M370.6,286.9c0-0.5-0.1-1.2-0.1-1.7c0-16.3,13.2-29.5,29.5-29.5
			s29.5,13.2,29.5,29.5c0,0.5,0,1.1-0.1,1.7c-0.4,0-1-0.1-1.4-0.1c-3.3-0.3-6.8-0.6-10.2-0.9c-1.3-0.1-2.5-0.2-3.8-0.3
			c-4.6-0.2-9.4-0.4-14-0.4c-4.8,0-9.4,0.1-14,0.4c-1.3,0.1-2.5,0.2-3.8,0.3c-3.5,0.2-6.8,0.5-10.2,0.9
			C371.5,286.8,371,286.8,370.6,286.9z M364.6,307.6c5.3-0.8,10.6-1.4,15.9-1.8c1.1-0.1,2.2-0.2,3.2-0.2c10.8-0.8,21.6-0.8,32.4,0
			c1.1,0.1,2.2,0.1,3.2,0.2c5.3,0.4,10.6,1,15.9,1.8c102.4,15.5,183.5,97,198.2,199.8c0.4,3.1,0.9,6.4,1.2,9.5
			c0.1,1.1,0.2,2.2,0.3,3.2c0.4,4.3,0.6,8.8,0.8,13.1c-154.5,35.8-317.3,35.8-471.8,0c0.1-4.3,0.4-8.8,0.8-13.1
			c0.1-1.1,0.2-2.2,0.3-3.2c0.3-3.1,0.6-6.4,1.2-9.5C181.2,404.6,262.1,323,364.6,307.6z M400,609.7c-168.1,0-275.3-41.9-275.3-63.9
			c0-3.8,4.6-12.1,20.3-22.9c0,0.5,0,1.1-0.1,1.6c-0.3,5.4-0.5,10.8-0.5,16.3v7.8l7.6,1.8c81.2,19.5,164.7,29.2,248.1,29.2
			s167-9.7,248.1-29.2l7.6-1.8v-7.8c0-5.5-0.2-10.9-0.5-16.3c0-0.5,0-1.1-0.1-1.6c15.7,10.8,20.3,19.1,20.3,22.9
			C675.3,567.8,568.1,609.7,400,609.7z"/>
	</g>
	<g id="question_mark">
		<g>
			<path class="st1" d="M408.4,517c0,5.4-4.4,9.8-9.8,9.8s-9.8-4.4-9.8-9.8c0-5.4,4.4-9.8,9.8-9.8
				C404.1,507.2,408.4,511.5,408.4,517z"/>
			<path class="st1" d="M399,497.1c-6.6,0-12.8-2.6-17.4-7.2c-4.6-5.4-7.2-11.7-7.2-18.3s2.6-12.8,7.2-16.6l33-33
				c3.7-3.8,5.7-8.6,5.7-13.9s-2.1-10.3-5.7-13.9c-7.7-7.7-20.2-7.7-27.9,0c-3.8,3.7-5.8,8.6-5.8,13.9h-19.8
				c0-10.6,4.1-20.4,11.6-27.9c14.9-14.9,40.8-14.9,55.8,0c7.5,7.5,11.6,17.3,11.6,27.9s-4.1,20.4-11.6,27.9l-33,32.2
				c-1.9,1.9-1.9,5.1,0,7s5.1,1.9,7,0c1.3-1.3,1.4-2.7,1.4-3.5h19.8c0,6.6-2.6,12.8-7.2,18.3C411.8,494.5,405.6,497.1,399,497.1
				L399,497.1L399,497.1z"/>
		</g>
	</g>
</g>
<g>
	<path class="st2" d="M633.5,638h113c1.7,0,3,1.3,3,3v36c0,1.7-1.3,3-3,3h-113c-1.7,0-3-1.3-3-3v-36
		C630.5,639.4,631.8,638,633.5,638z"/>
	<path class="st2" d="M711.5,603v113c0,1.7-1.3,3-3,3h-36c-1.7,0-3-1.3-3-3V603c0-1.7,1.3-3,3-3h36C710.2,600,711.5,601.4,711.5,603
		z"/>
</g>
</svg>
