<?xml version="1.0" encoding="utf-8"?>
<!-- Generator: Adobe Illustrator 27.2.0, SVG Export Plug-In . SVG Version: 6.00 Build 0)  -->
<svg version="1.1" id="Layer_1" xmlns="http://www.w3.org/2000/svg" xmlns:xlink="http://www.w3.org/1999/xlink" x="0px" y="0px"
	 viewBox="0 0 512 512" style="enable-background:new 0 0 512 512;" xml:space="preserve">
<style type="text/css">
	.st0{fill:#298983;}
	.st1{fill:#A5F2E5;}
	.st2{fill:#62D9C7;}
</style>
<polygon class="st0" points="223.2,256 282.2,315 490.4,315 490.4,197 282.2,197 "/>
<rect x="163.4" y="289.7" transform="matrix(0.7071 -0.7071 0.7071 0.7071 -195.8889 265.423)" class="st1" width="118" height="159"/>
<path d="M0,256.2c0,2.9,1.1,5.6,3.2,7.6L229.3,490c4.2,4.2,11,4.2,15.2,0l98.7-98.7c2-2,3.2-4.8,3.2-7.6s-1.1-5.6-3.2-7.6
	l-39.5-39.5h197.5c6,0,10.8-4.8,10.8-10.8V186.2c0-6-4.8-10.8-10.8-10.8H303.7l39.5-39.5c2-2,3.2-4.8,3.2-7.6c0-2.9-1.1-5.6-3.2-7.6
	L244.5,22c-2.1-2.1-4.9-3.2-7.6-3.2c-2.8,0-5.5,1.1-7.6,3.2l-55.2,55.2c-4.2,4.2-4.2,11,0,15.2l0,0c4.2,4.2,11,4.2,15.2,0l47.6-47.6
	l83.4,83.4L109.5,339.2L26,255.8l108.7-108.7c4.2-4.2,4.2-11,0-15.2l0,0c-4.2-4.2-11-4.2-15.2,0L3.2,248.2c-2,2-3.2,4.8-3.2,7.6
	c0,0.1,0,0.1,0,0.2C0,256.1,0,256.1,0,256.2z M490.4,315H282.2l-59-59l59-59h208.3V315z M320.4,383.7l-83.4,83.4L124.5,354.7
	l83.4-83.4L320.4,383.7z"/>
<path class="st2" d="M134.8,147.1L26,255.8l83.4,83.4l210.9-210.9l-83.4-83.4l-47.6,47.6c-4.2,4.2-11,4.2-15.2,0l-39.4,39.4l0,0
	C139,136,139,142.9,134.8,147.1z"/>
</svg>
