<?xml version="1.0" encoding="utf-8"?>
<!-- Generator: Adobe Illustrator 27.5.0, SVG Export Plug-In . SVG Version: 6.00 Build 0)  -->
<svg version="1.1" id="Layer_1" xmlns="http://www.w3.org/2000/svg" xmlns:xlink="http://www.w3.org/1999/xlink" x="0px" y="0px"
	 viewBox="0 0 800 800" style="enable-background:new 0 0 800 800;" xml:space="preserve">
<style type="text/css">
	.st0{fill:#F59705;}
	.st1{fill:#363636;}
</style>
<circle class="st0" cx="400" cy="400" r="397"/>
<g id="XMLID_241_">
	<g>
		<path class="st1" d="M567.1,126.7H238.8c-19.7,0-35.7,15.9-35.7,35.7v469.3c0,19.7,15.9,35.7,35.7,35.7h328.3
			c19.7,0,35.7-15.9,35.7-35.7V162.4C602.8,142.7,586.8,126.7,567.1,126.7z M259.8,530.7v-50.8c0-4.1,3.3-7.4,7.4-7.4h50.8
			c4.1,0,7.4,3.3,7.4,7.4v50.8c0,4.1-3.3,7.4-7.4,7.4h-50.8C263.1,537.9,259.8,534.7,259.8,530.7z M259.8,428.3v-50.8
			c0-4.1,3.3-7.4,7.4-7.4h50.8c4.1,0,7.4,3.3,7.4,7.4v50.8c0,4.1-3.3,7.4-7.4,7.4h-50.8C263.1,435.7,259.8,432.4,259.8,428.3z
			 M495.7,621.6H310.2c-13,0-23.5-10.6-23.5-23.5c0-12.9,10.6-23.5,23.5-23.5h185.5c13,0,23.5,10.6,23.5,23.5
			C519.2,611,508.6,621.6,495.7,621.6z M377.5,472.5h50.8c4.1,0,7.4,3.3,7.4,7.4v50.8c0,4.1-3.3,7.4-7.4,7.4h-50.8
			c-4.1,0-7.4-3.3-7.4-7.4v-50.8C370.2,475.8,373.5,472.5,377.5,472.5z M370.2,428.3v-50.8c0-4.1,3.3-7.4,7.4-7.4h50.8
			c4.1,0,7.4,3.3,7.4,7.4v50.8c0,4.1-3.3,7.4-7.4,7.4h-50.8C373.5,435.7,370.2,432.4,370.2,428.3z M538.8,537.9h-50.8
			c-4.1,0-7.4-3.3-7.4-7.4v-50.8c0-4.1,3.3-7.4,7.4-7.4h50.8c4.1,0,7.4,3.3,7.4,7.4v50.8l0,0C546.1,534.7,542.8,537.9,538.8,537.9z
			 M538.8,435.7h-50.8c-4.1,0-7.4-3.3-7.4-7.4v-50.8c0-4.1,3.3-7.4,7.4-7.4h50.8c4.1,0,7.4,3.3,7.4,7.4v50.8l0,0
			C546.1,432.4,542.8,435.7,538.8,435.7z M548.7,302.6c0,13.8-11.2,25.1-25.1,25.1H282.3c-13.8,0-25.1-11.2-25.1-25.1V200
			c0-13.8,11.2-25.1,25.1-25.1h241.3c13.8,0,25.1,11.2,25.1,25.1V302.6z"/>
	</g>
</g>
</svg>
