<?xml version="1.0" encoding="utf-8"?>
<!-- Generator: Adobe Illustrator 27.2.0, SVG Export Plug-In . SVG Version: 6.00 Build 0)  -->
<svg version="1.1" id="Layer_1" xmlns="http://www.w3.org/2000/svg" xmlns:xlink="http://www.w3.org/1999/xlink" x="0px" y="0px"
	 viewBox="0 0 800 800" style="enable-background:new 0 0 800 800;" xml:space="preserve">
<style type="text/css">
	.st0{fill:#F59705;}
</style>
<g>
	<g>
		<path class="st0" d="M400,7C183,7,7,183,7,400C7,617,183,793,400,793s393-176,393-393C793,183,617,7,400,7z M565.8,443.2H439.3
			v132.2c0,22.2-18,40.1-40.2,40.1c-22.2,0-40.2-18-40.2-40.2V443.2H235.9c-22.2,0-40.1-18-40.2-40.2c0-22.2,18-40.2,40.2-40.2
			l123.1,0V245.6c0-22.2,18-40.2,40.2-40.2c22.2,0,40.2,18,40.2,40.2l0,117.3l126.5,0c22.2,0,40.2,18,40.2,40.2
			C605.9,425.3,588,443.2,565.8,443.2z"/>
	</g>
</g>
</svg>
