<?xml version="1.0" encoding="utf-8"?>
<!-- Generator: Adobe Illustrator 27.2.0, SVG Export Plug-In . SVG Version: 6.00 Build 0)  -->
<svg version="1.1" id="Layer_1" xmlns="http://www.w3.org/2000/svg" xmlns:xlink="http://www.w3.org/1999/xlink" x="0px" y="0px"
	 viewBox="0 0 875 1000" style="enable-background:new 0 0 875 1000;" xml:space="preserve">
<style type="text/css">
	.st0{fill:#F59705;}
	.st1{fill:#363636;}
</style>
<circle class="st0" cx="437.5" cy="500" r="431.5"/>
<path class="st1" d="M156.8,359.7v-43.9c0.8-15.9,7.1-29.2,18.8-40.1c11.7-10.9,25.5-16.3,41.3-16.3h60.1v-20
	c0-16.7,5.8-30.9,17.5-42.6s25.9-17.5,42.6-17.5h200.5c16.7,0,30.9,5.8,42.6,17.5c11.7,11.7,17.5,25.9,17.5,42.6v20H658
	c15.9,0,29.7,5.4,41.3,16.3c11.7,10.9,18,24.2,18.8,40.1v43.9c0,10.9-4,20.3-11.9,28.2c-7.9,7.9-17.3,11.9-28.2,11.9v340.8
	c0,22.6-7.7,41.6-23.2,57c-15.5,15.5-34.5,23.2-57,23.2H277.1c-22.6,0-41.6-7.7-57-23.2c-15.5-15.5-23.2-34.5-23.2-57V399.8
	c-10.9,0-20.3-4-28.2-11.9C160.8,380,156.8,370.6,156.8,359.7z M196.9,359.7H678v-40.1c0-5.8-1.9-10.7-5.6-14.4
	c-3.8-3.8-8.6-5.6-14.4-5.6H217c-5.8,0-10.7,1.9-14.4,5.6c-3.8,3.8-5.6,8.6-5.6,14.4L196.9,359.7L196.9,359.7z M237,740.6
	c0,10.9,4,20.3,11.9,28.2c7.9,7.9,17.3,11.9,28.2,11.9h320.7c10.9,0,20.3-4,28.2-11.9c7.9-7.9,11.9-17.3,11.9-28.2V399.8H237
	L237,740.6L237,740.6z M277.1,720.5V459.9c0-5.8,1.9-10.6,5.6-14.4s8.6-5.6,14.4-5.6h40.1c5.8,0,10.6,1.9,14.4,5.6s5.6,8.6,5.6,14.4
	v260.6c0,5.8-1.9,10.7-5.6,14.4c-3.8,3.8-8.6,5.6-14.4,5.6h-40.1c-5.8,0-10.6-1.9-14.4-5.6C279,731.2,277.1,726.4,277.1,720.5
	L277.1,720.5z M297.1,720.5h40.1V459.9h-40.1V720.5z M317.2,259.5h240.6v-20c0-5.8-1.9-10.6-5.6-14.4c-3.8-3.8-8.6-5.6-14.4-5.6
	H337.2c-5.8,0-10.6,1.9-14.4,5.6s-5.6,8.6-5.6,14.4L317.2,259.5L317.2,259.5z M397.4,720.5V459.9c0-5.8,1.9-10.6,5.6-14.4
	s8.6-5.6,14.4-5.6h40.1c5.8,0,10.6,1.9,14.4,5.6c3.8,3.8,5.6,8.6,5.6,14.4v260.6c0,5.8-1.9,10.7-5.6,14.4c-3.8,3.8-8.6,5.6-14.4,5.6
	h-40.1c-5.8,0-10.6-1.9-14.4-5.6C399.3,731.2,397.4,726.4,397.4,720.5z M417.4,720.5h40.1V459.9h-40.1V720.5z M517.7,720.5V459.9
	c0-5.8,1.9-10.6,5.6-14.4c3.8-3.8,8.6-5.6,14.4-5.6h40.1c5.8,0,10.6,1.9,14.4,5.6c3.8,3.8,5.6,8.6,5.6,14.4v260.6
	c0,5.8-1.9,10.7-5.6,14.4c-3.8,3.8-8.6,5.6-14.4,5.6h-40.1c-5.8,0-10.7-1.9-14.4-5.6C519.5,731.2,517.7,726.4,517.7,720.5z
	 M537.7,720.5h40.1V459.9h-40.1V720.5z"/>
</svg>
